<svg xmlns="http://www.w3.org/2000/svg" xmlns:xlink="http://www.w3.org/1999/xlink" width="992.94" height="768.91" viewBox="0 0 992.94 768.91">
  <defs>
    <linearGradient id="linear-gradient" x1="-9.497" y1="1" x2="-9.497" gradientUnits="objectBoundingBox">
      <stop offset="0" stop-color="gray" stop-opacity="0.251"/>
      <stop offset="0.54" stop-color="gray" stop-opacity="0.122"/>
      <stop offset="1" stop-color="gray" stop-opacity="0.102"/>
    </linearGradient>
  </defs>
  <g id="heroImage5" transform="translate(8.94)">
    <rect id="Rectangle_6" data-name="Rectangle 6" width="357.09" height="440.27" transform="translate(434.85 165.37)" fill="rgba(109,224,246,0.5)"/>
    <rect id="Rectangle_5" data-name="Rectangle 5" width="357.09" height="438.28" transform="translate(-8.94 61.79)" fill="rgba(208,9,141,0.45)"/>
    <circle id="Ellipse_1" data-name="Ellipse 1" cx="8.51" cy="8.51" r="8.51" transform="translate(14.06 0)" fill="#6de0f6"/>
    <circle id="Ellipse_2" data-name="Ellipse 2" cx="8.51" cy="8.51" r="8.51" transform="translate(42.02 0)" fill="#6de0f6"/>
    <circle id="Ellipse_3" data-name="Ellipse 3" cx="8.51" cy="8.51" r="8.51" transform="translate(69.98 0)" fill="#6de0f6"/>
    <rect id="Rectangle_1" data-name="Rectangle 1" width="783" height="1" transform="translate(0 28.66)" fill="#6de0f6"/>
    <rect id="Rectangle_2" data-name="Rectangle 2" width="311.09" height="382.28" transform="translate(14.06 89.79)" fill="#d0098d"/>
    <rect id="Rectangle_3" data-name="Rectangle 3" width="311.09" height="382.27" transform="translate(457.85 194.37)" fill="#6de0f6"/>
    <path id="Path_1" data-name="Path 1" d="M786.89,378.35c1-2.86,2.57-5.52,3.37-8.44,1.07-3.91.68-8.05.22-12.08a10.3,10.3,0,0,0-1.46-5c-1.36-1.86-3.74-2.63-5.57-4-4.46-3.35-5.08-9.55-6.64-14.87a35.869,35.869,0,0,0-11.65-17.55c-3.5-2.85-8.49-5.07-12.44-2.86-1.67.93-2.89,2.55-4.6,3.4-2.22,1.11-4.76.77-7.29.63a3.611,3.611,0,0,0-1.16-.92c-2.38-1.14-6.83.2-9.07,1.13a8.48,8.48,0,0,0-4.47,3.76,7.055,7.055,0,0,0-.49,1.4c-.3,1.2-.4,2.46-.77,3.66a10.355,10.355,0,0,1-1.25,2.54c-1.49,2.21-3.68,4.06-5.19,6.31a14.551,14.551,0,0,0-1.68,3.4h0a29.52,29.52,0,0,0-1.23,10.94c.2,5,.8,10-.41,14.85-.38,1.49-.92,3-1.37,4.44-.08.24-.17.5-.24.74l-.18.72c-.08.35-.16.7-.22,1.05h0c-.12.72-.19,1.45-.24,2.19v1.1a18.31,18.31,0,0,1-.09,2.22,16.583,16.583,0,0,1-.44,3.27,14.421,14.421,0,0,1-1.42,3.45h0c-.69,1.24-1.5,2.41-2.3,3.57l-2.68,3.89c-3.18-.25-6.42-.2-9.14,1.33a12,12,0,0,0-5.21,6.78,2,2,0,0,0-.61.35c-.55.46-1.15,2.11-1.73,4.19v.05c-1.18,4.29-2.25,10.39-2.6,11.75-.8,3-1.43,6.13-2,9.23-1.14,6.35-1.92,12.76-3,19.12-.22,1.3-1.65,9.91-3.06,14.85a1.2,1.2,0,0,1-.1.37c-.55,1.84-1.08,3.09-1.54,3.09h1.4c-.25.59-.49,1.2-.71,1.81a37.738,37.738,0,0,0-1.13,3.84.316.316,0,0,0,0,.08,75.9,75.9,0,0,0-1.67,12.18,498.8,498.8,0,0,0-.2,71.7,36.609,36.609,0,0,0,1.79,10.41,15.14,15.14,0,0,0,2.81,4.69l.18.2c-.11.48-.21.94-.33,1.42q-5,22.11-11.7,43.82c-.1.31-.19.63-.3.94-.27.9-.55,1.81-.83,2.71-.17.58-.35,1.16-.51,1.75-.12.38-.22.76-.32,1.12a51.323,51.323,0,0,0-1.61,8,52.822,52.822,0,0,0,.82,15h31.86c0-.22-.06-.43-.08-.65-.62-4.46-1.37-9.1.05-13.36.91-2.75,2.65-5.13,4.09-7.64,3-5.17,4.68-11,7.41-16.27,4-7.7,10.11-14.41,12.93-22.5q.45-1.28.78-2.61c1.94,5.77,1.93,11.62,2.29,17.68a221.247,221.247,0,0,0,7.46,45.35h32.17c-.53-8.42-1.28-16.85-1.75-25.24a65.414,65.414,0,0,1,.27-13.78,71.081,71.081,0,0,1,2.52-9.82c3.63-11.64,7.47-23.33,8.67-35.45s2.06-29.24-4.61-39.48a3.37,3.37,0,0,0-.43-.55,9.18,9.18,0,0,0,0-2.77c-1.81-16.67-11.35-32.67-8.59-49.22a62.874,62.874,0,0,1,3.91-12.64c4.06-10.25,8.58-20.76,11.06-31.43a48.136,48.136,0,0,0,2.34-9.22,51.227,51.227,0,0,0,.76-8.39,19.61,19.61,0,0,0-.27-3.19c3.33,1.16,6.59,3.44,10.13,3.89a8.812,8.812,0,0,0,.91.08,1.32,1.32,0,0,1-.12-.2,4.391,4.391,0,0,1-.67-2.18,6.721,6.721,0,0,0,1.9.15h0a7.27,7.27,0,0,0,3.53-1.09A22.21,22.21,0,0,1,786.89,378.35Zm-97,149.53c-.54,1.14-1,2.29-1.5,3.47v-.13a27.58,27.58,0,0,1-.93-14.48c.08-.3.15-.6.22-.89s.2-.76.3-1.15a10.62,10.62,0,0,0,5.29,7c-.29.47-.58.93-.86,1.4a53.472,53.472,0,0,0-2.57,4.78Zm4.47-33.07c-.9,1.78-2,3.45-3.09,5.16a215.556,215.556,0,0,0,3.3-26.68h0c.09-1.45.16-2.91.22-4.36a62,62,0,0,1,1.41,10.18c.36,4.49.71,9.13-.81,13.37a17.424,17.424,0,0,1-1.08,2.33Z" transform="translate(-108 -65.54)" fill="url(#linear-gradient)"/>
    <path id="Path_2" data-name="Path 2" d="M729.24,320.44a8.33,8.33,0,0,0-4.41,3.73c-.75,1.56-.72,3.38-1.23,5-1.08,3.48-4.32,5.77-6.33,8.8-2.73,4.11-3,9.35-2.87,14.29s.79,10-.41,14.76c-.58,2.33-1.58,4.56-2,6.93-.49,2.88-.08,5.89-.79,8.72a22.52,22.52,0,0,1-3.67,7l-6.39,9.36a73.181,73.181,0,0,0,8.44-2.55,15.161,15.161,0,0,1-4.56,6.91l4.62-5.6a13.14,13.14,0,0,1,3.44-3.26c1.7-1,3.71-1.12,5.61-1.5,3.67-.75,7.33-2.63,9.13-5.92,2.39-4.39.86-9.91,2.2-14.73,1-3.52,3.39-6.42,5.05-9.67,3.78-7.34,3.55-16,4.73-24.17a75.052,75.052,0,0,0,1.3-10.43c0-2.59-.26-7.52-3-8.83C735.8,318.18,731.42,319.51,729.24,320.44Z" transform="translate(-108 -65.54)" fill="#192534"/>
    <path id="Path_3" data-name="Path 3" d="M771.1,559.16c-1.18,12.05-5,23.67-8.52,35.24a68.751,68.751,0,0,0-2.48,9.76,66,66,0,0,0-.27,13.7c.45,8.1,1.16,16.22,1.67,24.33H729.72a223.008,223.008,0,0,1-7.13-44.31c-.33-5.51-.34-10.85-1.81-16.11-.13-.49-.28-1-.44-1.47-2.24,9.23-9.17,16.5-13.47,25-2.69,5.27-4.36,11-7.28,16.17-1.42,2.5-3.14,4.87-4,7.59-1.39,4.21-.66,8.78-.06,13.17H664.15a51.618,51.618,0,0,1-.69-14.14,56.57,56.57,0,0,1,2.17-10c.16-.59.34-1.17.51-1.75.28-.9.56-1.81.83-2.71q6.79-22.23,11.84-45c.1-.47.21-1,.31-1.43q.86-3.9,1.66-7.81c1.83-8.95,3.58-18.19,6.9-26.64.21-.51.41-1,.63-1.53.47-1.13,1-2.25,1.53-3.34a49.725,49.725,0,0,1,2.62-4.67,43.478,43.478,0,0,1,2.95-4.15c17.57-1.52,35.81-10.29,53-6.22a25.169,25.169,0,0,1,8.06,3.3c2.94,1.9,7.49.79,9.72,3.22a4.683,4.683,0,0,1,.42.55C773.12,530.09,772.28,547.11,771.1,559.16Z" transform="translate(-108 -65.54)" fill="#192534"/>
    <path id="Path_4" data-name="Path 4" d="M726.41,379.27c-.38,4.3-1.28,9.36-5.19,11.16-2.21,1-4.79.65-7.19,1-4.54.74-8.26,4.23-10.37,8.31s-2.82,8.73-3.31,13.3c-.61,5.72-.81,11.93,2.33,16.75,2.54,3.91,6.93,6.28,11.43,7.49a31.88,31.88,0,0,0,26.62-4.94,59.823,59.823,0,0,0,9.8-9.68c6.52-7.59,13.09-15.91,14.42-25.83.16-1.13.15-2.49-.78-3.16a3.4,3.4,0,0,0-2.09-.41l-6.26.11c-1.59,0-3.38,0-4.45-1.19s-1-2.7-1-4.16l.48-18.13a2.56,2.56,0,0,0-.41-1.83,2.39,2.39,0,0,0-1.44-.62c-3.44-.58-7,0-10.42-.94-3.21-.88-8.24-4.57-10.6-.78C726,369,726.74,375.62,726.41,379.27Z" transform="translate(-108 -65.54)" fill="#ffc1c7"/>
    <path id="Path_5" data-name="Path 5" d="M726.41,379.27c-.38,4.3-1.28,9.36-5.19,11.16-2.21,1-4.79.65-7.19,1-4.54.74-8.26,4.23-10.37,8.31s-2.82,8.73-3.31,13.3c-.61,5.72-.81,11.93,2.33,16.75,2.54,3.91,6.93,6.28,11.43,7.49a31.88,31.88,0,0,0,26.62-4.94,59.823,59.823,0,0,0,9.8-9.68c6.52-7.59,13.09-15.91,14.42-25.83.16-1.13.15-2.49-.78-3.16a3.4,3.4,0,0,0-2.09-.41l-6.26.11c-1.59,0-3.38,0-4.45-1.19s-1-2.7-1-4.16l.48-18.13a2.56,2.56,0,0,0-.41-1.83,2.39,2.39,0,0,0-1.44-.62c-3.44-.58-7,0-10.42-.94-3.21-.88-8.24-4.57-10.6-.78C726,369,726.74,375.62,726.41,379.27Z" transform="translate(-108 -65.54)" opacity="0.1"/>
    <circle id="Ellipse_4" data-name="Ellipse 4" cx="23.9" cy="23.9" r="23.9" transform="translate(610.26 264.76)" fill="#ffc1c7"/>
    <path id="Path_6" data-name="Path 6" d="M716.52,420.65c-3.86.08-8.22-1-10.09-4.39-1.28-2.32-1.06-5.14-.82-7.77L707,393.77c-3.75-.39-7.78-.73-11.06,1.13-4.34,2.46-5.91,7.92-6.4,12.89-.91,9.33.57,18.75.06,28.11-.43,7.88-2.24,16,.07,23.5,1,3.14,2.62,6,3.67,9.15a51,51,0,0,1,2,12.31c.36,4.46.7,9.07-.79,13.29-1.25,3.54-3.68,6.51-5.42,9.83-2.85,5.48-3.46,12.86.82,17.31,3.91,4.07,10.4,4.24,15.89,3s10.76-3.74,16.39-4c9.94-.42,18.8,6,28.53,8.12a8.649,8.649,0,0,0,4,.14,9.729,9.729,0,0,0,3.2-1.75l5.32-3.82a7.38,7.38,0,0,0,2.57-2.61,6.831,6.831,0,0,0,.33-3.73c-1.78-16.57-11.16-32.49-8.45-48.94a63.924,63.924,0,0,1,3.85-12.56c6.75-17.26,14.84-35.2,12.22-53.55-.58-4.06-1.77-8.22-4.57-11.22s-7.53-4.5-11.16-2.58-4.94,6.2-6.51,9.93A45.69,45.69,0,0,1,737.33,416c-2.64,2-5.82,4.6-9.27,4.7C724.3,420.83,720.36,420.58,716.52,420.65Z" transform="translate(-108 -65.54)" fill="#f2f2f2"/>
    <path id="Path_7" data-name="Path 7" d="M681.86,457.78c-5.79,6.43-6.93,15.69-7.57,24.33a503.189,503.189,0,0,0-.19,71.28,36.183,36.183,0,0,0,1.77,10.35c1.23,3.29,3.55,6.34,6.81,7.65,2.09.84,5,.62,6-1.43.87-1.88-.42-4-1.4-5.79a21.069,21.069,0,0,1-2.11-13.7c1.19.88,1.6,2.43,1.94,3.87l1.87,8c2.57-.38,3.53-3.51,3.94-6.07.75-4.64,1.47-9.57-.39-13.88-1-2.3-2.65-4.26-3.64-6.55-2.5-5.78-3.49-12.38-1.88-18.47a216.122,216.122,0,0,0,7-63,26.78,26.78,0,0,1-12.15,3.41Z" transform="translate(-108 -65.54)" fill="#ffc1c7"/>
    <path id="Path_8" data-name="Path 8" d="M676.39,464.28a88.169,88.169,0,0,1,21.14,2.79c.91-4.5.47-9.16,0-13.73l-3-31.42c-.22-2.34.2-23.7-4.3-19.93-1.66,1.39-3.75,13.89-4.27,15.9-.78,3-1.4,6.09-2,9.17-1.12,6.32-1.89,12.69-3,19C680.7,447.9,678,464.29,676.39,464.28Z" transform="translate(-108 -65.54)" fill="#f2f2f2"/>
    <path id="Path_9" data-name="Path 9" d="M733.05,323.82a4.12,4.12,0,0,1,.49-2.14,3.62,3.62,0,0,1,2.56-1.36c3.45-.53,7.23.86,10.35-.72,1.69-.85,2.88-2.45,4.53-3.38,3.88-2.19,8.78,0,12.22,2.85a35.591,35.591,0,0,1,11.46,17.45c1.52,5.28,2.14,11.45,6.52,14.78,1.81,1.38,4.15,2.14,5.47,4a10.21,10.21,0,0,1,1.45,5c.45,4,.83,8.13-.22,12-.79,2.9-2.35,5.54-3.31,8.39a22.24,22.24,0,0,0,6.07,23.17,7.14,7.14,0,0,1-5.35.93,4.61,4.61,0,0,0,.78,2.36c-5.6-.17-10.46-5.62-15.93-4.43-4.17.9-6.5,5.22-9.62,8.14-4,3.78-10.25,5.36-15.29,3.12s-8.1-8.6-6-13.68c2.43-5.79,9.94-8.07,12.55-13.79,2-4.43.52-9.59.95-14.44.37-4.16,2.17-8,3.29-12.06s1.48-8.62-.8-12.12c-2.41-3.71-7-5.16-11.26-6.54C734.52,338.22,732.69,333.43,733.05,323.82Z" transform="translate(-108 -65.54)" fill="#192534"/>
    <path id="Path_10" data-name="Path 10" d="M738.92,409.72c-.68-3.34-1.35-6.89-.15-10.07,2.23-5.94,9.54-7.79,14.6-11.61a19.76,19.76,0,0,0,6.5-8.66c.92-2.42,1-5.73-1.22-7a5.4,5.4,0,0,0-2.82-.49c-7.88.18-15.1,4.47-21.14,9.53-3.52,2.95-6.86,6.33-8.61,10.57a35.191,35.191,0,0,0-2,9.5l-1.23,10.72a163.486,163.486,0,0,0-1.43,18.49,83.3,83.3,0,0,0,.66,10.59c.32,2.5.79,5.07,2.25,7.12,2.73,3.81,8,4.66,12.66,4.79a21.831,21.831,0,0,0,5.3-.33c7.78-1.69,13.69-12.6,7.8-19.34-2.51-2.86-6.27-2.93-7.69-6.86C740.5,421.46,740,415.17,738.92,409.72Z" transform="translate(-108 -65.54)" fill="#ffc1c7"/>
    <path id="Path_11" data-name="Path 11" d="M745.25,411.59l-6.15,10.05a4.52,4.52,0,0,0-.75,1.73c-.17,1.31.8,2.46,1.58,3.53,5.3,7.23,4,17.19,2.36,26a47.18,47.18,0,0,0,32.45-38.22c.78-5.25,2-13.91-2.64-17.33C760.87,389.12,750.52,403,745.25,411.59Z" transform="translate(-108 -65.54)" fill="#f2f2f2"/>
    <path id="Path_12" data-name="Path 12" d="M714,391.46c2.4-.38,5,0,7.19-1,3.91-1.8,4.81-6.86,5.19-11.16,0-.39.06-.83.07-1.29a34.822,34.822,0,0,0-4.54-4,22.74,22.74,0,0,0-4.65-2L713,370.45a25.14,25.14,0,0,0-1,3.55c-.49,2.88-.08,5.89-.79,8.72a22.52,22.52,0,0,1-3.67,7l-6.39,9.36c1.16-.28,2.3-.59,3.45-.92a14.4,14.4,0,0,1,9.4-6.7Z" transform="translate(-108 -65.54)" fill="#192534"/>
    <path id="Path_13" data-name="Path 13" d="M868.63,530.62S827,510.25,835,525.75,868.63,543,868.63,543Z" transform="translate(-108 -65.54)" fill="#ffc1c7"/>
    <path id="Path_14" data-name="Path 14" d="M720.33,450.46,719,453.12l31.44,16.38,1.33-2.65Z" fill="#192534"/>
    <path id="Path_15" data-name="Path 15" d="M897.41,529.73s-2.66,6.65-12.84,2.66a47.51,47.51,0,0,0-18.16-3.54s-6.64,13.28,0,18.15,34.54,13.29,35.43,8.42S897.41,529.73,897.41,529.73Z" transform="translate(-108 -65.54)" fill="#6de0f6"/>
    <path id="Path_16" data-name="Path 16" d="M897.41,529.73s-2.66,6.65-12.84,2.66a47.51,47.51,0,0,0-18.16-3.54s-6.64,13.28,0,18.15,34.54,13.29,35.43,8.42S897.41,529.73,897.41,529.73Z" transform="translate(-108 -65.54)" opacity="0.1"/>
    <circle id="Ellipse_5" data-name="Ellipse 5" cx="27.9" cy="27.9" r="27.9" transform="translate(782.1 331.11)" fill="#ff6584"/>
    <path id="Path_17" data-name="Path 17" d="M897.19,476.81v-4.87s6.64-8.41,14.17-2.65-4,25.68-4,25.68L899,490.1Z" transform="translate(-108 -65.54)" fill="#6de0f6"/>
    <path id="Path_18" data-name="Path 18" d="M921.77,805.32l-8.42,9.75s15.06,3.54,15.5,4,15.5-1.33,15.5-1.33L943,802.22Z" transform="translate(-108 -65.54)" fill="#ffc1c7"/>
    <path id="Path_19" data-name="Path 19" d="M953.65,796.32l4,16.83,17.27-4,8.86-13.73s-6.2-4.43-8-8.86S953.65,796.32,953.65,796.32Z" transform="translate(-108 -65.54)" fill="#ffc1c7"/>
    <path id="Path_20" data-name="Path 20" d="M955.87,665.39l-1.77,28.78a22.31,22.31,0,0,0-1.33,15.06c2.21,8.41,1.33,43.84,1.33,43.84s-3.1,48.71-4,51.81-4,4.43-1.77,7.09c0,0-29.67,6.64-29.23-4.43,0,0,4-7.53,4-14.61s1.33-46.06,1.33-46.06l10.62-99.64Z" transform="translate(-108 -65.54)" fill="#3f3d56"/>
    <path id="Path_21" data-name="Path 21" d="M955.87,665.39l-1.77,28.78a22.31,22.31,0,0,0-1.33,15.06c2.21,8.41,1.33,43.84,1.33,43.84s-3.1,48.71-4,51.81-4,4.43-1.77,7.09c0,0-29.67,6.64-29.23-4.43,0,0,4-7.53,4-14.61s1.33-46.06,1.33-46.06l10.62-99.64Z" transform="translate(-108 -65.54)" opacity="0.1"/>
    <path id="Path_22" data-name="Path 22" d="M909.37,592.17s-12.4,73.52-12,97,6.64,36.75,6.64,36.75l33.22,45.17a7.83,7.83,0,0,0,.88,7.53c2.66,4,3.55,7.09,3.55,9.74s5.31,4.43,7.08,8,6.64,13.73,18.16,5.76,15.5-11.07,13.28-17.27-7.08-10.18-7.52-13.28S962.51,760.9,961.18,752s-23.91-45.17-23.91-45.17,22.58-45.17,23.47-53.58,3.54-12,3.54-12,13.73-26.13,6.2-38.08S909.37,592.17,909.37,592.17Z" transform="translate(-108 -65.54)" fill="#3f3d56"/>
    <path id="Path_23" data-name="Path 23" d="M928.85,816.84s-12-1.77-12-8.42l-16.39,9.3s-32.33,1.33-18.6,12.4,74-3.54,74-3.54S951.44,812,947,810.64C947,810.64,939,817.28,928.85,816.84Z" transform="translate(-108 -65.54)" fill="#3f3d56"/>
    <path id="Path_24" data-name="Path 24" d="M928.85,816.84s-12-1.77-12-8.42l-16.39,9.3s-32.33,1.33-18.6,12.4,74-3.54,74-3.54S951.44,812,947,810.64C947,810.64,939,817.28,928.85,816.84Z" transform="translate(-108 -65.54)" opacity="0.1"/>
    <path id="Path_25" data-name="Path 25" d="M982.88,793.22S970,811.38,958.52,806.51c0,0-6.68-6.81-9.09-3s-7.73,14.47-13.49,15.8-26.13,8-6.2,13.29,57.57-12.4,61.11-19.49S982.88,793.22,982.88,793.22Z" transform="translate(-108 -65.54)" fill="#3f3d56"/>
    <path id="Path_26" data-name="Path 26" d="M901,461.25a33.862,33.862,0,0,1,3.69,6.79,11,11,0,0,1,.18,7.58c-.43,1.13-1.12,2.15-1.57,3.27a11,11,0,0,0,.24,8.12,20,20,0,0,0,4.83,6.71,4.16,4.16,0,0,0,2.22,1.34,3.6,3.6,0,0,0,3.07-1.66c2-2.54,2.41-5.92,3.08-9.07s1.85-6.54,4.64-8.16a13.11,13.11,0,0,1,4.92-1.31l6.29-.81a5.54,5.54,0,0,0,3.24-1.15c1.27-1.23,4.52,2.68,3.47,1.26s-6.18-8.37-7.74-9.2a9.63,9.63,0,0,1-4.06-3.3,10.441,10.441,0,0,1-1-4.93c-.14-3.19-.43-6.52-2.13-9.22a13.33,13.33,0,0,0-8.05-5.39,39.56,39.56,0,0,0-9.85-.89,16,16,0,0,0-6.17.76,6.94,6.94,0,0,0-3.13,2.42c-1.39,2-3,5.46-2,7.84C896.49,455.4,899.1,458.39,901,461.25Z" transform="translate(-108 -65.54)" fill="#ffc1c7"/>
    <circle id="Ellipse_6" data-name="Ellipse 6" cx="25.68" cy="25.68" r="25.68" transform="translate(776.57 341.53)" fill="#ffc1c7"/>
    <path id="Path_27" data-name="Path 27" d="M943.91,478.36a17.14,17.14,0,0,0-17.3-9.67c-7.35.8-15.41,2.75-16.36,7.46-1.77,8.86-4.87,18.6-4.87,11.07s-.17-12.87-.17-12.87-6.91-5.73-8.24-2.19-2.66,17.27-2.22,27,.89,39.85.89,39.85.89,30.12,3.54,38.09a39.15,39.15,0,0,1,1.33,16.38s-3.54,3.55,4.87,4.87,12.85-6.2,26.57,3.1,43.85,14.17,45.17,8-8.41-31.89-5.75-50.93-27.46-80.16-27.46-80.16Z" transform="translate(-108 -65.54)" fill="#6de0f6"/>
    <path id="Path_28" data-name="Path 28" d="M914.68,590.85s-6.64,10.62-8.85,11.07-3.1,4.87,2.21,2.65,3.54-2.21,3.54-2.21-4.43,7.09,3.1,8.41S926.2,613,926.2,609s-.89-14.61-.89-14.61Z" transform="translate(-108 -65.54)" fill="#ffc1c7"/>
    <path id="Path_29" data-name="Path 29" d="M916.9,476.15a27.389,27.389,0,0,0-3.1,27.46c6.64,15.94,22.14,43.84,22.14,43.84s7.08,4,4,7.08-3.54,2.22-5.75,4.87-17.72,22.15-17.72,22.15-8.85,5.31-6.2,11.51,13.29,8.86,13.29,8.86a7.63,7.63,0,0,1,8-4.87c6.2.44,17.27-8.86,17.27-8.86s17.27-29.67,19-32.77,4-4,.89-12S943,478.81,933.28,476.15,916.9,476.15,916.9,476.15Z" transform="translate(-108 -65.54)" opacity="0.1"/>
    <path id="Path_30" data-name="Path 30" d="M918.67,475.26a27.42,27.42,0,0,0-3.1,27.46c6.64,15.94,22.14,43.84,22.14,43.84s7.09,4,4,7.09-3.55,2.21-5.76,4.87-17.71,22.14-17.71,22.14-8.86,5.31-6.2,11.51S925.31,601,925.31,601a7.64,7.64,0,0,1,8-4.87c6.2.44,17.27-8.86,17.27-8.86s17.27-29.67,19.05-32.77,4-4,.88-11.95-25.68-64.66-35.43-67.32S918.67,475.26,918.67,475.26Z" transform="translate(-108 -65.54)" fill="#6de0f6"/>
    <circle id="Ellipse_7" data-name="Ellipse 7" cx="26.79" cy="26.79" r="26.79" transform="translate(790.08 334.22)" fill="#ff6584"/>
    <ellipse id="Ellipse_8" data-name="Ellipse 8" cx="8.64" cy="13.73" rx="8.64" ry="13.73" transform="translate(818.919 333.393) rotate(-42.44)" fill="#ff6584"/>
    <ellipse id="Ellipse_9" data-name="Ellipse 9" cx="19.04" cy="8.86" rx="19.04" ry="8.86" transform="translate(773.25 337.76)" fill="#ff6584"/>
    <ellipse id="Ellipse_10" data-name="Ellipse 10" cx="3.99" cy="5.98" rx="3.99" ry="5.98" transform="translate(792.29 366.99)" fill="#ffc1c7"/>
    <rect id="Rectangle_4" data-name="Rectangle 4" width="286" height="1" transform="translate(698 767.91)" fill="#3c354c"/>
    <path id="Path_31" data-name="Path 31" d="M368.06,400c-6.11,2.32-20.32,2.58-26.62,2.57h-3.11l-4.05-8.23,4.05-6.87s3.7-1,8.64-1.91c7.28-1.31,17.24-2.34,22,.61C376.91,391,376,396.93,368.06,400Z" transform="translate(-108 -65.54)" fill="#a0616a"/>
    <path id="Path_32" data-name="Path 32" d="M341.44,402.52h-3.11l-4.05-8.23,4.05-6.87s3.7-1,8.64-1.91C343,388.44,333.35,394.81,341.44,402.52Z" transform="translate(-108 -65.54)" opacity="0.1"/>
    <path id="Path_33" data-name="Path 33" d="M274.42,301.37l1.79-2.05s9.19,14.55,10.16,20,2.19,11.81,2.19,11.81,2.34,7.14,3.85,10.3,2.88,6.17,3,7.55-.55,4.39,2.33,6.31,3.57,7.14,3.57,7.14,10.44,10.16,15.93,10.44,21.28,3,20.73,5.76,6.59,4.4,9.47,5.08-18.53,8.93-6,19.5c0,0-8,1.65-8.79,3.57s-9.19-1.1-9.19-1.1-1.79-4.26-8-4.53-9.33-3-9.33-3.43-6.18-3.85-9.61-4.81-8-1.37-8.11-2.33-20.59-89.25-20.59-89.25Z" transform="translate(-108 -65.54)" fill="#192534"/>
    <path id="Path_34" data-name="Path 34" d="M274.42,301.37l1.79-2.05s9.19,14.55,10.16,20,2.19,11.81,2.19,11.81,2.34,7.14,3.85,10.3,2.88,6.17,3,7.55-.55,4.39,2.33,6.31,3.57,7.14,3.57,7.14,10.44,10.16,15.93,10.44,21.28,3,20.73,5.76,6.59,4.4,9.47,5.08-18.53,8.93-6,19.5c0,0-8,1.65-8.79,3.57s-9.19-1.1-9.19-1.1-1.79-4.26-8-4.53-9.33-3-9.33-3.43-6.18-3.85-9.61-4.81-8-1.37-8.11-2.33-20.59-89.25-20.59-89.25Z" transform="translate(-108 -65.54)" opacity="0.05"/>
    <path id="Path_35" data-name="Path 35" d="M318.42,537.62H276c-2.19-3.94-4-7.86-3.62-9.19.92-3-.42-7.82-.42-7.82s-1.32-2.28-2.92-5c-1.95-3.34-4.31-7.35-5.11-8.6-1-1.59-3.44-8.35-4.8-12.24-.58-1.65-1-2.79-1-2.79s-1.65,30.27-3.09,33.36c-.62,1.33-1.39,6.66-2,12.28h-33.3a11.858,11.858,0,0,0-.89-2.8c-1.54-3,1.54-13.29,1.54-13.29s-3-20-2.88-23.06-2.57-12.26-2.57-12.26-2.68-4.73-2.06-6.18-2.06-5.14-1.34-6.79-.62-6.69-2-9.68c-.69-1.53-1.53-5.75-2.2-9.49-.08-.42-.15-.83-.22-1.23-.51-3-.87-5.45-.87-5.45l5.42-4.37.23-.19,11.34-9.13,15.45-4.05.94-.25,26-6.82L276.76,419l3.12-1,1.78-.58,15.55,24.5s1.33,2.12,2.64,4.73l.39.79c1.22,2.55,2.31,5.39,2.12,7.15A9.85,9.85,0,0,0,303.8,461s9.27,29.35,9.06,37.8,3.3,27,3.3,27S318.41,532.8,318.42,537.62Z" transform="translate(-108 -65.54)" fill="#192534"/>
    <path id="Path_36" data-name="Path 36" d="M255,302.4c-.66-.27-45.45-18.77-39.28-22.44,3.66-2.19,8.16-11.43,11.25-18.67,2.16-5.06,3.62-9.14,3.62-9.14s35.95-6.38,23.08,15.66a40.561,40.561,0,0,0-4.53,10.85C245.45,293.67,254.68,302.12,255,302.4Z" transform="translate(-108 -65.54)" fill="#a0616a"/>
    <path id="Path_37" data-name="Path 37" d="M253.65,267.81a40.56,40.56,0,0,0-4.53,10.85,25.12,25.12,0,0,1-21.23-14.92,24.246,24.246,0,0,1-.94-2.45c2.16-5.06,3.62-9.14,3.62-9.14S266.52,245.77,253.65,267.81Z" transform="translate(-108 -65.54)" opacity="0.1"/>
    <path id="Path_38" data-name="Path 38" d="M276,252.77a25.11,25.11,0,1,1-1-7A25.11,25.11,0,0,1,276,252.77Z" transform="translate(-108 -65.54)" fill="#a0616a"/>
    <path id="Path_39" data-name="Path 39" d="M300.24,447.45c-2.63,2.39-3.65,6.94-3.65,6.94s-12.35,8.45-11.53,3.09-6.38-27-6.38-27L279.5,460s-39.54-1.85-42.42-4.73-19.77-8.45-19.77-8.45-5.17,4.15-9.93,7.3c-.63-3.55-1.09-6.68-1.09-6.68l17-13.7,42.42-11.12,16-5.15,15.55,24.51Q298.886,444.639,300.24,447.45Z" transform="translate(-108 -65.54)" opacity="0.1"/>
    <path id="Path_40" data-name="Path 40" d="M301.54,445.12c-3.3,2.06-4.53,7.62-4.53,7.62s-12.36,8.45-11.54,3.09-6.38-27-6.38-27l.82,29.45s-39.54-1.85-42.42-4.73-19.77-8.45-19.77-8.45-14.62,11.74-17.3,10.71,4.73-21,4.73-21l7.62-117s-2.05-34.8,1-36a4.25,4.25,0,0,0,1.3-.81c2-1.83,2.65-5.54,2.82-8.66.21-3.71,5.15-1.86,5.15-1.86l-2.88,3.71,25.52,15.52.22.13a29.344,29.344,0,0,1,3.07-1.39c2.26-.87,5.26-1.68,7.23-.87a6.94,6.94,0,0,1,2.7,2.43,30.491,30.491,0,0,1,3.48,7l9.26,15.65s4.74,20.8,4.74,21.63,1.44,19.77,3.09,21.83,3.3,12.35,2.68,15.44,1,14.62,1,14.62c6.79,5.56,10.29,24.51,10.29,24.51s10.71,21.21,11.54,23.69S304.83,443.06,301.54,445.12Z" transform="translate(-108 -65.54)" fill="#f2f2f2"/>
    <path id="Path_41" data-name="Path 41" d="M245.71,290.53c-2.51,3.71-9.73,8.92-9.73,8.92L215.1,281.82c2-1.83,2.65-5.54,2.82-8.66.21-3.71,5.15-1.85,5.15-1.85l-.6.77a3.32,3.32,0,0,0,.9,4.87Z" transform="translate(-108 -65.54)" opacity="0.1"/>
    <path id="Path_42" data-name="Path 42" d="M245.71,289.71c-2.51,3.7-9.73,8.92-9.73,8.92L215.1,281c2-1.83,2.65-5.54,2.82-8.66.21-3.71,5.15-1.86,5.15-1.86l-.6.77a3.32,3.32,0,0,0,.9,4.87Z" transform="translate(-108 -65.54)" fill="#f2f2f2"/>
    <path id="Path_43" data-name="Path 43" d="M255.36,292.48c-2.7,3.23-6.51,6.88-6.34,5s-2.28-5.88-3.84-7.69a11.37,11.37,0,0,1,7.48.21A6.94,6.94,0,0,1,255.36,292.48Z" transform="translate(-108 -65.54)" opacity="0.1"/>
    <path id="Path_44" data-name="Path 44" d="M255.77,291.25c-2.69,3.22-6.51,6.88-6.34,5.05s-2-4.8-3.59-6.61c2.26-.87,5.26-1.69,7.23-.88A6.911,6.911,0,0,1,255.77,291.25Z" transform="translate(-108 -65.54)" fill="#f2f2f2"/>
    <circle id="Ellipse_11" data-name="Ellipse 11" cx="1.65" cy="1.65" r="1.65" transform="translate(139.37 239.54)" fill="#192534"/>
    <circle id="Ellipse_12" data-name="Ellipse 12" cx="1.65" cy="1.65" r="1.65" transform="translate(151.86 284.02)" fill="#192534"/>
    <circle id="Ellipse_13" data-name="Ellipse 13" cx="1.65" cy="1.65" r="1.65" transform="translate(166.01 329.05)" fill="#192534"/>
    <circle id="Ellipse_14" data-name="Ellipse 14" cx="1.65" cy="1.65" r="1.65" transform="translate(166.42 378.07)" fill="#192534"/>
    <circle id="Ellipse_15" data-name="Ellipse 15" cx="1.65" cy="1.65" r="1.65" transform="translate(146.65 260.54)" fill="#192534"/>
    <circle id="Ellipse_16" data-name="Ellipse 16" cx="1.65" cy="1.65" r="1.65" transform="translate(157.77 306.26)" fill="#192534"/>
    <circle id="Ellipse_17" data-name="Ellipse 17" cx="1.65" cy="1.65" r="1.65" transform="translate(168.62 351.16)" fill="#192534"/>
    <circle id="Ellipse_18" data-name="Ellipse 18" cx="1.65" cy="1.65" r="1.65" transform="translate(166.14 383.56)" fill="#192534"/>
    <path id="Path_45" data-name="Path 45" d="M215.11,282s.27-2.48-3.3,1.78-10.29,8-10.29,8-15.24,10.71-16.07,15.66-5.76,26.36-3.16,33.5,22.52,41.32,22.52,41.32-5.22,6.18-4,13.46,2.75,17.3,2.06,19.49.82,7.69-1.51,9.61-4.81,5.22,2.47,9.62c0,0,1.37,3.7.14,4.53s18.26,9.33,25.95,4.8,21.55-40.78,21.83-48.88S247.51,360,245,353.68s-9.89-30.89-13-36.38S215.11,282,215.11,282Z" transform="translate(-108 -65.54)" opacity="0.1"/>
    <path id="Path_46" data-name="Path 46" d="M214.28,282s.28-2.48-3.29,1.78-10.3,8-10.3,8-15.24,10.71-16.06,15.66-5.77,26.36-3.16,33.5S204,382.24,204,382.24s-5.22,6.18-4,13.46,2.74,17.3,2.06,19.49.82,7.69-1.51,9.61-4.81,5.22,2.47,9.62c0,0,1.37,3.7.13,4.53s18.26,9.33,26,4.8,21.56-40.78,21.83-48.88-4.25-34.87-6.72-41.19-9.89-30.89-13.05-36.38S214.28,282,214.28,282Z" transform="translate(-108 -65.54)" fill="#192534"/>
    <path id="Path_47" data-name="Path 47" d="M208.79,305.36s11.81,13,11.4,21.69C220.19,327.05,220.33,313.05,208.79,305.36Z" transform="translate(-108 -65.54)" opacity="0.1"/>
    <path id="Path_48" data-name="Path 48" d="M225.13,326.77c0,.42,8,30.07,7.55,33.78S235,375.24,235,375.24l3.7-1s-2.88-15.24-3.43-20.87S225.13,326.77,225.13,326.77Z" transform="translate(-108 -65.54)" opacity="0.1"/>
    <path id="Path_49" data-name="Path 49" d="M228.29,411.35c-.28.41-18.81,21.42-13.59,22.93S228.29,411.35,228.29,411.35Z" transform="translate(-108 -65.54)" opacity="0.1"/>
    <path id="Path_50" data-name="Path 50" d="M213.05,406c-.41.28-7.41,15.11-8.24,11.13s6,10.84,7.14-.14Z" transform="translate(-108 -65.54)" opacity="0.1"/>
    <path id="Path_51" data-name="Path 51" d="M248.64,286.68S256.3,282,265.91,294c0,0,7,4,9.06,4.94s4.39,26.5,4.39,26.5,4.53,11,3.3,17.3,3.57,28,3.57,28,8,39,7.69,40.09-8.1-12.22-8-18.81-6.59-27.18-7.55-28.42-7.55-36.52-7.55-36.52-5.35-15-8.79-19.91-7.68-14.28-9.47-15.93a18.08,18.08,0,0,0-4.26-2.74Z" transform="translate(-108 -65.54)" opacity="0.1"/>
    <path id="Path_52" data-name="Path 52" d="M248.54,286.68s8.58-4.66,18.19,7.28c0,0,7,4,9.06,4.94s4.4,26.5,4.4,26.5,4.53,11,3.29,17.3,3.57,28,3.57,28,8,39,7.69,40.09-8.1-12.22-8-18.81-6.59-27.18-7.55-28.42-7.56-36.52-7.56-36.52-5.35-15-8.78-19.91-7.69-14.28-9.48-15.93a17,17,0,0,0-5.08-2.74Z" transform="translate(-108 -65.54)" fill="#192534"/>
    <path id="Path_53" data-name="Path 53" d="M286.23,372.49s16.34-10.7,24.23-5.42,20.8,12.77,8.1,18.19-30.27,4.4-30.27,4.4Z" transform="translate(-108 -65.54)" fill="#a0616a"/>
    <path id="Path_54" data-name="Path 54" d="M274.87,475.81c-2.44,5.23-4.44,31.47-5.81,39.79-1.95-3.34-4.31-7.34-5.11-8.59-1-1.59-3.44-8.35-4.8-12.24C260.7,491,265,480.19,265,476.22c0-4.84,7.83-10.91,7.83-10.91A9.08,9.08,0,0,1,274.87,475.81Z" transform="translate(-108 -65.54)" opacity="0.1"/>
    <path id="Path_55" data-name="Path 55" d="M275,245.81a6.179,6.179,0,0,1-1.22.51c-1.93.52-3.82-.78-5.54-1.82s-4.08-1.81-5.56-.46c-1.94,1.75-.54,5.51-2.53,7.21-1.27,1.08-3.27.71-4.68,1.6s-1.82,2.81-2.18,4.49-1.06,3.57-2.7,4.06-3.15-.58-4.77-.52a1.455,1.455,0,0,1-1-.19,1.07,1.07,0,0,1-.16-.75,15.89,15.89,0,0,0-.52-6,5.68,5.68,0,0,0-4.18-3.91c-2.9-.45-5.33,2.08-7,4.46a73.656,73.656,0,0,0-4.87,7.84c-.07.14-.15.33-.24.55A25.13,25.13,0,1,1,275,245.81Z" transform="translate(-108 -65.54)" opacity="0.1"/>
    <path id="Path_56" data-name="Path 56" d="M233,254.12c1.7-2.38,4.13-4.91,7-4.46a5.7,5.7,0,0,1,4.18,3.91,15.89,15.89,0,0,1,.52,6,1,1,0,0,0,.17.75c.22.24.61.2.94.19,1.61-.06,3.22,1,4.77.52s2.34-2.39,2.7-4.07.73-3.57,2.18-4.48,3.41-.52,4.68-1.6c2-1.7.58-5.46,2.52-7.22,1.49-1.34,3.86-.57,5.57.47s3.61,2.34,5.54,1.82a19.265,19.265,0,0,0,1.88-.8c3.05-1.16,7,.81,9.52-1.28a7.34,7.34,0,0,0,1.9-3.29,21,21,0,0,0,1.39-5.25,7,7,0,0,0-1.4-5.11c-1.63-1.93-4.39-2.41-6.48-3.83a16,16,0,0,1-4.14-4.88,18.14,18.14,0,0,0-4-5c-1.71-1.3-4.13-1.92-6-.95a6.831,6.831,0,0,1-2,.94,4,4,0,0,1-2.18-.6c-7.15-3.36-15.46-2.77-23.29-1.77a30.4,30.4,0,0,0-9.17,2.22,11,11,0,0,0-6.19,6.78c-.64,2.42-.15,5-.92,7.43-.52,1.62-1.59,3-2.2,4.59-1.67,4.34.33,9.11,1.18,13.69.92,5,.45,10.41,2.58,15.13.42.93.88,2.56,1.93,1.94.78-.45,1.53-3.09,2-3.91a75.318,75.318,0,0,1,4.82-7.88Z" transform="translate(-108 -65.54)" fill="#192534"/>
    <path id="Path_57" data-name="Path 57" d="M187.79,334.6l-3.71,10.57s8.79,32.68,12.91,39.54,10.16,15.66,10.16,15.66a37.64,37.64,0,0,0,22,2.74c11.81-2.33,46.27-8.51,46.27-8.51s2.89.55,4.4-1.65,9.33-3.29,9.33-3.29,9.06-13.18-2.06-18.68c0,0-1.37,3-7.27,1s-7.69,1.64-7.69,1.64-9.61,1.93-15,1.24-18.67-1-20-2.06a1.76,1.76,0,0,0-2.48.14s-3.29-1.24-4.39-2.47-2.61,1.37-2.61,1.37-1.92-1.1-1.37-2.47-1.79-6.59-1.79-6.59a13.49,13.49,0,0,1-.41-6.18c.69-2.75-3.43-12.63-3.43-12.63a17.239,17.239,0,0,1,.55-4.95c.69-2.47-5.22-7.41-5.22-7.41s-5.76-28-18-18.81S187.79,334.6,187.79,334.6Z" transform="translate(-108 -65.54)" opacity="0.1"/>
    <path id="Path_58" data-name="Path 58" d="M187,334.6l-3.7,10.57s8.78,32.68,12.9,39.54,10.16,15.66,10.16,15.66a37.67,37.67,0,0,0,22,2.74c11.81-2.33,46.27-8.51,46.27-8.51s2.88.55,4.39-1.65,9.34-3.29,9.34-3.29,9.06-13.18-2.06-18.68c0,0-1.37,3-7.28,1s-7.69,1.64-7.69,1.64-9.61,1.93-15,1.24-18.67-1-20.05-2.06a1.75,1.75,0,0,0-2.47.14s-3.29-1.24-4.39-2.47-2.61,1.37-2.61,1.37-1.92-1.1-1.37-2.47-1.79-6.59-1.79-6.59a13.34,13.34,0,0,1-.41-6.18c.69-2.75-3.43-12.63-3.43-12.63a17.24,17.24,0,0,1,.55-4.95c.68-2.47-5.22-7.41-5.22-7.41s-5.77-28-18-18.81S187,334.6,187,334.6Z" transform="translate(-108 -65.54)" fill="#192534"/>
    <path id="Path_59" data-name="Path 59" d="M276.21,378.81c-.14,1-3.16,4.81-2.06,5.49s2.88.28,1.23,2.47-1.51,5.5-.41,5.08,2.88-5.35,2.88-7.27S276.21,378.81,276.21,378.81Z" transform="translate(-108 -65.54)" opacity="0.1"/>
    <path id="Path_60" data-name="Path 60" d="M235.43,376.61s-.83,9.61-7.55,12.36S235.43,376.61,235.43,376.61Z" transform="translate(-108 -65.54)" opacity="0.1"/>
    <path id="Path_61" data-name="Path 61" d="M221.42,373.32c-.41.14-9.61,5.08-5.49,8S221.42,373.32,221.42,373.32Z" transform="translate(-108 -65.54)" opacity="0.1"/>
    <path id="Path_62" data-name="Path 62" d="M220.87,366.45s-13.45,2.75-8.92,5.08S220.87,366.45,220.87,366.45Z" transform="translate(-108 -65.54)" opacity="0.1"/>
    <g id="Group_1" data-name="Group 1" opacity="0.1">
      <path id="Path_63" data-name="Path 63" d="M244.21,251.24a5.71,5.71,0,0,0-4.18-3.92c-2.9-.44-5.33,2.09-7,4.47a75.325,75.325,0,0,0-4.87,7.84c-.44.82-1.19,3.45-2,3.91-1,.61-1.51-1-1.93-1.94-2.13-4.73-1.66-10.14-2.58-15.14-.54-2.92-1.55-5.91-1.77-8.83-.32,3.59,1.09,7.37,1.77,11,.92,5,.45,10.41,2.58,15.13.42.93.88,2.56,1.93,1.94.78-.45,1.53-3.08,2-3.9A73.27,73.27,0,0,1,233,254c1.7-2.39,4.13-4.92,7-4.47a5.7,5.7,0,0,1,4.18,3.91,10.85,10.85,0,0,1,.55,3.09A14.19,14.19,0,0,0,244.21,251.24Z" transform="translate(-108 -65.54)"/>
      <path id="Path_64" data-name="Path 64" d="M287.1,238.2a7.38,7.38,0,0,1-1.9,3.3c-2.51,2.09-6.47.12-9.52,1.28-.64.24-1.22.62-1.88.8-1.93.51-3.82-.79-5.54-1.83s-4.08-1.81-5.57-.46c-1.94,1.76-.53,5.52-2.52,7.22-1.27,1.07-3.27.71-4.68,1.59s-1.82,2.82-2.18,4.49-1.06,3.58-2.7,4.07-3.16-.59-4.77-.53c-.33,0-.72.06-.94-.19a.59.59,0,0,1-.12-.2c0,.55,0,1.1-.05,1.65a1,1,0,0,0,.17.75c.22.24.61.2.94.19,1.61-.06,3.22,1,4.77.53s2.34-2.4,2.7-4.07.73-3.58,2.18-4.49,3.41-.52,4.68-1.6c2-1.69.58-5.46,2.52-7.21,1.49-1.35,3.86-.58,5.57.46s3.61,2.34,5.54,1.82a19.183,19.183,0,0,0,1.88-.79c3.05-1.17,7,.81,9.52-1.29a7.29,7.29,0,0,0,1.9-3.29,21,21,0,0,0,1.39-5.25,9.451,9.451,0,0,0,0-1.84,22.611,22.611,0,0,1-1.39,4.89Z" transform="translate(-108 -65.54)"/>
    </g>
  </g>
</svg>
